<?xml version="1.0" standalone="no"?><!DOCTYPE svg PUBLIC "-//W3C//DTD SVG 1.1//EN" "http://www.w3.org/Graphics/SVG/1.1/DTD/svg11.dtd"><svg t="1572257712746" class="icon" viewBox="0 0 1024 1024" version="1.1" xmlns="http://www.w3.org/2000/svg" p-id="1401" width="200" height="200" xmlns:xlink="http://www.w3.org/1999/xlink"><defs><style type="text/css"></style></defs><path d="M512 0C229.23264 0 0 229.23264 0 512s229.23264 512 512 512 512-229.23264 512-512S794.76736 0 512 0zM515.70688 615.1168l-58.15296 0 0 177.65376L437.58592 819.2 353.9968 819.2l-30.91456-20.76672-3.6352-190.91456c0 0-119.88992 3.76832-114.46272-126.67904 5.4784-130.37568 130.79552-153.10848 130.79552-153.10848l179.92704 0L515.70688 615.1168zM608.3584 616.99072l-54.54848 0L553.80992 327.7312l54.54848 0L608.3584 616.99072zM819.2 713.32864c0 0-12.78976 39.72096-36.43392 22.74304-23.57248-17.0496-134.38976-94.5664-134.38976-94.5664L648.37632 306.96448c0 0 118.0672-100.21888 139.90912-102.08256S819.2 233.25696 819.2 233.25696L819.2 713.32864z" p-id="1402" fill="#bfbfbf"></path><path d="M512 0C229.23264 0 0 229.23264 0 512s229.23264 512 512 512 512-229.23264 512-512S794.76736 0 512 0zM515.70688 615.1168l-58.15296 0 0 177.65376L437.58592 819.2 353.9968 819.2l-30.91456-20.76672-3.6352-190.91456c0 0-119.88992 3.76832-114.46272-126.67904 5.4784-130.37568 130.79552-153.10848 130.79552-153.10848l179.92704 0L515.70688 615.1168zM608.3584 616.99072l-54.54848 0L553.80992 327.7312l54.54848 0L608.3584 616.99072zM819.2 713.32864c0 0-12.78976 39.72096-36.43392 22.74304-23.57248-17.0496-134.38976-94.5664-134.38976-94.5664L648.37632 306.96448c0 0 118.0672-100.21888 139.90912-102.08256S819.2 233.25696 819.2 233.25696L819.2 713.32864z" p-id="1403" fill="#bfbfbf"></path></svg>